<svg xmlns:xlink="http://www.w3.org/1999/xlink" display="block" role="presentation" viewBox="0 0 20 20" xmlns="http://www.w3.org/2000/svg" width="20"  height="20" ><g d="M 13.333 14.167 L 13.333 13.542 C 13.333 11.586 11.748 10 9.792 10 L 3.542 10 C 1.586 10 0 11.586 0 13.542 L 0 14.167 M 3.333 3.333 C 3.333 1.492 4.826 0 6.667 0 C 8.508 0 10 1.492 10 3.333 C 10 5.174 8.508 6.667 6.667 6.667 C 4.826 6.667 3.333 5.174 3.333 3.333 Z" fill="transparent" height="14.166699999999999px" id="q0RzH0Wss" transform="translate(3.333 2.5)" width="13.333290000000002px"><path d="M 13.333 4.167 L 13.333 3.542 C 13.333 1.586 11.748 0 9.792 0 L 3.542 0 C 1.586 0 0 1.586 0 3.542 L 0 4.167" fill="transparent" height="4.166699999999999px" id="i5tqG6d4X" stroke-dasharray="" stroke-linecap="round" stroke-linejoin="round" stroke-width="1" stroke="rgb(255, 255, 255)" transform="translate(0 10)" width="13.333289999999998px"/><path d="M 0 3.333 C 0 1.492 1.492 0 3.333 0 C 5.174 0 6.667 1.492 6.667 3.333 C 6.667 5.174 5.174 6.667 3.333 6.667 C 1.492 6.667 0 5.174 0 3.333 Z" fill="transparent" height="6.66666px" id="iXHdafkE9" stroke-dasharray="" stroke-linecap="round" stroke-linejoin="round" stroke-width="1" stroke="rgb(255, 255, 255)" transform="translate(3.333 0)" width="6.66666px"/></g></svg>